<svg width="9" height="10" viewBox="0 0 9 10" fill="none" xmlns="http://www.w3.org/2000/svg">
<mask id="path-1-outside-1_406_16598" maskUnits="userSpaceOnUse" x="0" y="0.5" width="9" height="9" fill="black">
<rect fill="white" y="0.5" width="9" height="9"/>
<path fill-rule="evenodd" clip-rule="evenodd" d="M4.57873 5.45888L7.60863 8.48878L8.14623 7.95118L5.11633 4.92128L7.98878 2.04882L7.45118 1.51122L4.57873 4.38368L1.69506 1.50001L1.15746 2.0376L4.04113 4.92128L1.00001 7.9624L1.5376 8.5L4.57873 5.45888Z"/>
</mask>
<path fill-rule="evenodd" clip-rule="evenodd" d="M4.57873 5.45888L7.60863 8.48878L8.14623 7.95118L5.11633 4.92128L7.98878 2.04882L7.45118 1.51122L4.57873 4.38368L1.69506 1.50001L1.15746 2.0376L4.04113 4.92128L1.00001 7.9624L1.5376 8.5L4.57873 5.45888Z" fill="#5444EC"/>
<path d="M7.60863 8.48878L7.32579 8.77162L7.60863 9.05447L7.89148 8.77162L7.60863 8.48878ZM4.57873 5.45888L4.86157 5.17603L4.57873 4.89319L4.29589 5.17603L4.57873 5.45888ZM8.14623 7.95118L8.42908 8.23403L8.71192 7.95118L8.42908 7.66834L8.14623 7.95118ZM5.11633 4.92128L4.83348 4.63843L4.55064 4.92128L4.83348 5.20412L5.11633 4.92128ZM7.98878 2.04882L8.27162 2.33167L8.55447 2.04882L8.27162 1.76598L7.98878 2.04882ZM7.45118 1.51122L7.73403 1.22838L7.45118 0.945539L7.16834 1.22838L7.45118 1.51122ZM4.57873 4.38368L4.29589 4.66652L4.57873 4.94936L4.86157 4.66652L4.57873 4.38368ZM1.69506 1.50001L1.9779 1.21716L1.69506 0.934321L1.41221 1.21716L1.69506 1.50001ZM1.15746 2.0376L0.874615 1.75476L0.591772 2.0376L0.874615 2.32045L1.15746 2.0376ZM4.04113 4.92128L4.32397 5.20412L4.60682 4.92128L4.32397 4.63843L4.04113 4.92128ZM1.00001 7.9624L0.717163 7.67956L0.434321 7.9624L0.717163 8.24524L1.00001 7.9624ZM1.5376 8.5L1.25476 8.78284L1.5376 9.06569L1.82045 8.78284L1.5376 8.5ZM7.89148 8.20594L4.86157 5.17603L4.29589 5.74172L7.32579 8.77162L7.89148 8.20594ZM7.86339 7.66834L7.32579 8.20594L7.89148 8.77162L8.42908 8.23403L7.86339 7.66834ZM4.83348 5.20412L7.86339 8.23403L8.42908 7.66834L5.39917 4.63843L4.83348 5.20412ZM7.70594 1.76598L4.83348 4.63843L5.39917 5.20412L8.27162 2.33167L7.70594 1.76598ZM7.16834 1.79407L7.70594 2.33167L8.27162 1.76598L7.73403 1.22838L7.16834 1.79407ZM4.86157 4.66652L7.73403 1.79407L7.16834 1.22838L4.29589 4.10084L4.86157 4.66652ZM1.41221 1.78285L4.29589 4.66652L4.86157 4.10084L1.9779 1.21716L1.41221 1.78285ZM1.4403 2.32045L1.9779 1.78285L1.41221 1.21716L0.874615 1.75476L1.4403 2.32045ZM4.32397 4.63843L1.4403 1.75476L0.874615 2.32045L3.75829 5.20412L4.32397 4.63843ZM1.28285 8.24524L4.32397 5.20412L3.75829 4.63843L0.717163 7.67956L1.28285 8.24524ZM1.82045 8.21716L1.28285 7.67956L0.717163 8.24524L1.25476 8.78284L1.82045 8.21716ZM4.29589 5.17603L1.25476 8.21716L1.82045 8.78284L4.86157 5.74172L4.29589 5.17603Z" fill="#5444EC" mask="url(#path-1-outside-1_406_16598)"/>
</svg>
