<svg width="246" height="62" fill="none" xmlns="http://www.w3.org/2000/svg"><path d="M129.558 1c-29.348 1.74-58.64 3.8-87.554 8.71C28.28 12.04 9.73 14.152 2.771 26.3c-4.459 7.786.17 14.624 6.465 20.561 10.3 9.716 28.613 10.912 42.689 12.403 51.049 5.405 106.483-2.213 154.691-17.254 4.879-1.522 53.671-18.482 33.537-25.576-10.044-3.539-21.045-4.775-31.745-5.733-32.007-2.865-64.226-3.762-96.386-3.031-28.769.654-57.36 2.867-85.378 8.764-7.601 1.6-19.266 3.531-22.337 10.97-1.442 3.494-.892 7.275 3.009 9.315 15.255 7.977 37.563 10.189 54.529 12.788 35.977 5.512 71.281 9.138 107.842 7.882 16.597-.57 31.771-1.293 47.426-5.787" stroke="#8F83FF" stroke-linecap="round" stroke-linejoin="round"/></svg>