<svg version="1.1" id="Icons" xmlns="http://www.w3.org/2000/svg" x="0" y="0" viewBox="0 0 32 32" style="enable-background:new 0 0 32 32" xml:space="preserve"><style>.st0{fill:none;stroke:#ffffff;stroke-width:2;stroke-linecap:round;stroke-linejoin:round;stroke-miterlimit:10}</style><path class="st0" d="M26 22H6c-2.2 0-4-1.8-4-4V8c0-2.2 1.8-4 4-4h20c2.2 0 4 1.8 4 4v10c0 2.2-1.8 4-4 4zM3 27h4M11 27h18"/><circle class="st0" cx="9" cy="27" r="2"/><path class="st0" d="M13 10v6c0 .7.9 1.2 1.5.8l5-3c.6-.4.6-1.2 0-1.6l-5-3c-.6-.5-1.5 0-1.5.8z"/></svg>