<svg width="47" height="47" fill="none" xmlns="http://www.w3.org/2000/svg"><rect width="47" height="47" rx="23.5" fill="#fff"/><mask id="a" maskUnits="userSpaceOnUse" x="12.562" y="13.147" width="22" height="22" fill="#000"><path fill="#fff" d="M12.562 13.147h22v22h-22z"/><path fill-rule="evenodd" clip-rule="evenodd" d="m23.588 24.71 7.994 7.994.537-.537-7.994-7.994 8.46-8.46-.538-.537-8.46 8.46-8.488-8.49-.537.538 8.488 8.489-8.023 8.023.538.538 8.023-8.023Z"/></mask><path fill-rule="evenodd" clip-rule="evenodd" d="m23.588 24.71 7.994 7.994.537-.537-7.994-7.994 8.46-8.46-.538-.537-8.46 8.46-8.488-8.49-.537.538 8.488 8.489-8.023 8.023.538.538 8.023-8.023Z" fill="#5444EC"/><path d="m31.582 32.704-.707.707.707.708.707-.708-.707-.707Zm-7.994-7.993.707-.707-.707-.708-.707.707.707.708Zm8.531 7.456.707.707.707-.707-.707-.707-.707.707Zm-7.994-7.994-.707-.707-.707.707.707.707.707-.707Zm8.46-8.46.707.708.707-.707-.707-.707-.707.707Zm-.538-.537.707-.707-.707-.707-.707.707.707.707Zm-8.46 8.46-.706.707.707.707.707-.707-.707-.708Zm-8.488-8.49.707-.706-.707-.707-.707.707.707.707Zm-.537.538-.707-.707-.708.707.707.707.708-.707Zm8.488 8.489.707.707.708-.707-.708-.707-.707.707Zm-8.023 8.023-.707-.707-.707.707.707.708.707-.708Zm.538.538-.708.707.708.707.707-.707-.707-.707Zm16.724-.737-7.994-7.994-1.414 1.415 7.994 7.993 1.414-1.414Zm-.877-.537-.537.537 1.414 1.414.537-.537-1.414-1.414Zm-7.994-6.58 7.994 7.994 1.414-1.414-7.993-7.994-1.415 1.414Zm8.46-9.873-8.46 8.459 1.415 1.414 8.459-8.459-1.415-1.414Zm-.538.877.538.537 1.414-1.414-.538-.538-1.414 1.415Zm-7.045 8.459 8.46-8.46-1.415-1.414-8.46 8.46 1.415 1.414Zm-9.903-8.49 8.489 8.49 1.414-1.415-8.489-8.488-1.414 1.414Zm.877.538.537-.537-1.414-1.414-.537.537 1.414 1.414Zm8.488 7.075-8.488-8.489-1.415 1.414 8.49 8.49 1.413-1.415Zm-8.023 9.438 8.023-8.024-1.414-1.414-8.023 8.023 1.414 1.415Zm.538-.877-.538-.538-1.414 1.415.537.537 1.415-1.414Zm6.609-8.024-8.024 8.024 1.415 1.414 8.023-8.023-1.414-1.415Z" fill="#5444EC" mask="url(#a)"/></svg>